<?xml version="1.0" encoding="UTF-8"?>
<svg width="25px" height="25px" viewBox="0 0 25 25" version="1.1" xmlns="http://www.w3.org/2000/svg" xmlns:xlink="http://www.w3.org/1999/xlink">
    <!-- Generator: Sketch 46 (44423) - http://www.bohemiancoding.com/sketch -->
    <title>logos/social media/github</title>
    <desc>Created with Sketch.</desc>
    <defs></defs>
    <g id="Page-1" stroke="none" stroke-width="1" fill="none" fill-rule="evenodd">
        <g id="WT_landing_B-Copy" transform="translate(-30.000000, -545.000000)" fill="#202020">
            <g id="Header-Info" transform="translate(30.000000, 425.000000)">
                <g id="social-media" transform="translate(0.000000, 120.000000)">
                    <g id="logos/social-media/github">
                        <path d="M12.498849,0 C5.59639645,0 0,5.59639645 0,12.5003837 C0,18.023113 3.5812947,22.7078793 8.54845146,24.3615519 C9.17385432,24.4758894 9.40176187,24.0899045 9.40176187,23.7584027 C9.40176187,23.4621996 9.39101875,22.67565 9.38487983,21.6328003 C5.90794684,22.3878879 5.17434544,19.9568741 5.17434544,19.9568741 C4.60572762,18.5134596 3.78618128,18.1282421 3.78618128,18.1282421 C2.65124774,17.353203 3.87212622,17.3685503 3.87212622,17.3685503 C5.12676878,17.4567973 5.78670309,18.6569569 5.78670309,18.6569569 C6.90168513,20.5669296 8.71266767,20.0151938 9.42478284,19.6959698 C9.53835293,18.8879339 9.86064643,18.3369655 10.2182387,18.0246478 C7.4426778,17.7092606 4.52438687,16.6364836 4.52438687,11.8465883 C4.52438687,10.4822125 5.01166396,9.36646306 5.81125879,8.49243378 C5.68234139,8.1762792 5.25338408,6.90552196 5.9332699,5.18432119 C5.9332699,5.18432119 6.98302588,4.84821511 9.37106725,6.46582154 C10.367875,6.18803524 11.4375825,6.04990945 12.5003837,6.04530526 C13.5616501,6.04990945 14.6313576,6.18803524 15.6297001,6.46582154 C18.0162068,4.84821511 19.0636606,5.18432119 19.0636606,5.18432119 C19.7458486,6.90552196 19.3168912,8.1762792 19.1879738,8.49243378 C19.9891034,9.36646306 20.473311,10.4822125 20.473311,11.8465883 C20.473311,16.6487615 17.5504159,17.7054237 14.7656466,18.014672 C15.2145554,18.4006569 15.6143528,19.1634182 15.6143528,20.3298137 C15.6143528,22.0003683 15.5990055,23.3486295 15.5990055,23.7584027 C15.5990055,24.092974 15.8238436,24.4820283 16.4584548,24.3600172 C21.4217748,22.7032751 25,18.0215783 25,12.5003837 C25,5.59639645 19.4028362,0 12.498849,0"></path>
                    </g>
                </g>
            </g>
        </g>
    </g>
</svg>