<?xml version="1.0" encoding="UTF-8"?>
<svg width="25px" height="21px" viewBox="0 0 25 21" version="1.1" xmlns="http://www.w3.org/2000/svg" xmlns:xlink="http://www.w3.org/1999/xlink">
    <!-- Generator: Sketch 46 (44423) - http://www.bohemiancoding.com/sketch -->
    <title>logos/social media/twitter</title>
    <desc>Created with Sketch.</desc>
    <defs></defs>
    <g id="Page-1" stroke="none" stroke-width="1" fill="none" fill-rule="evenodd">
        <g id="WT_landing_B-Copy" transform="translate(-250.000000, -547.000000)" fill-rule="nonzero" fill="#202020">
            <g id="Header-Info" transform="translate(30.000000, 425.000000)">
                <g id="social-media" transform="translate(0.000000, 120.000000)">
                    <g id="logos/social-media/twitter" transform="translate(220.000000, 0.000000)">
                        <path d="M7.85314126,22.6781312 C17.2869148,22.6781312 22.4489796,14.8550019 22.4489796,8.08229282 C22.4489796,7.86220479 22.4489796,7.64211675 22.4389756,7.42202872 C23.4393758,6.7017406 24.3097239,5.79137646 25,4.76096429 C24.0796319,5.17112836 23.0892357,5.4412364 22.0488195,5.57128842 C23.1092437,4.94103632 23.9195678,3.93063216 24.3097239,2.73015197 C23.3193277,3.32038806 22.2188876,3.74055613 21.0484194,3.97064816 C20.1080432,2.970248 18.777511,2.3499999 17.3069228,2.3499999 C14.4757903,2.3499999 12.1748699,4.65092027 12.1748699,7.48205273 C12.1748699,7.88221279 12.22489,8.27236885 12.304922,8.65252091 C8.04321729,8.44243688 4.26170468,6.39161655 1.73069228,3.29037606 C1.29051621,4.05068018 1.04041617,4.93103232 1.04041617,5.87140847 C1.04041617,7.65212075 1.95078031,9.222749 3.32132853,10.1431172 C2.4809924,10.1131051 1.69067627,9.88301311 1.00040016,9.50286105 C1.00040016,9.52286905 1.00040016,9.54287706 1.00040016,9.57288906 C1.00040016,12.0538815 2.77110844,14.1347138 5.11204482,14.6049019 C4.68187275,14.7249499 4.23169268,14.7849739 3.7615046,14.7849739 C3.43137255,14.7849739 3.1112445,14.7549619 2.80112045,14.6949379 C3.45138055,16.7357542 5.35214086,18.2163464 7.59303721,18.2563624 C5.83233293,19.6369147 3.62144858,20.4572428 1.2204882,20.4572428 C0.81032413,20.4572428 0.400160064,20.4372348 0,20.3872148 C2.26090436,21.827791 4.96198479,22.6781312 7.85314126,22.6781312"></path>
                    </g>
                </g>
            </g>
        </g>
    </g>
</svg>