<?xml version="1.0" encoding="UTF-8"?>
<svg width="25px" height="25px" viewBox="0 0 25 25" version="1.1" xmlns="http://www.w3.org/2000/svg" xmlns:xlink="http://www.w3.org/1999/xlink">
    <!-- Generator: Sketch 46 (44423) - http://www.bohemiancoding.com/sketch -->
    <title>logos/social media/website</title>
    <desc>Created with Sketch.</desc>
    <defs></defs>
    <g id="Symbols" stroke="none" stroke-width="1" fill="none" fill-rule="evenodd">
        <g id="logos/social-media/website" fill="#202020">
            <path d="M15.6089517,8.43185687 C17.1975033,11.1099986 16.8495845,14.6266873 14.5485284,16.9277433 L11.9151786,19.5610931 C9.19328662,22.2829851 4.76409228,22.2829851 2.04220026,19.5610931 C-0.680733421,16.8381594 -0.680733421,12.4089651 2.04220026,9.68707304 L4.67450838,7.05476493 C6.38701909,5.34017088 8.77557568,4.70787526 10.9901729,5.15162803 L8.02869601,8.11310487 C7.52660954,8.31727282 7.05577327,8.62248306 6.64952073,9.0287356 L4.01617093,11.6620854 C2.38386907,13.2954289 2.38386907,15.9527372 4.01617093,17.5860807 C5.64951448,19.2183826 8.30682275,19.2183826 9.94120797,17.5860807 L12.5735161,14.952731 C13.7714402,13.7548068 14.0818588,12.0089626 13.523522,10.5172866 L15.6089517,8.43185687 Z M22.958581,5.04141901 C25.680473,7.76331102 25.680473,12.1925054 22.958581,14.9154391 L20.3262729,17.5477472 C18.5939704,19.2800497 16.1699969,19.9060952 13.9356079,19.4331756 L16.8387511,16.5289908 C17.3897962,16.3269062 17.9085494,16.0144043 18.3502189,15.5727348 L20.9835686,12.9404267 C22.6169122,11.3070832 22.6169122,8.64977489 20.9835686,7.01643135 C19.3502251,5.38308781 16.6929168,5.38308781 15.0595733,7.01643135 L12.4272652,9.64978114 C11.2470495,10.8289552 10.9324642,12.5372992 11.4564258,14.0133501 L9.35641264,16.1123215 C7.80744463,13.4414715 8.16786355,9.95915808 10.4512112,7.67372713 L13.0845609,5.04141901 C15.8074946,2.319527 20.236689,2.319527 22.958581,5.04141901 Z" id="Fill-1"></path>
        </g>
    </g>
</svg>